Coordinates
version=1
nRows=24
nColumns=22
inDegrees=yes

Units are S.I. units (second, meters, Newtons, ...)
If the header above contains a line with 'inDegrees', this indicates whether rotational values are in degrees (yes) or radians (no).

endheader
time	pelvis_tilt	pelvis_list	pelvis_rotation	pelvis_tx	pelvis_ty	pelvis_tz	hip_flexion_r	hip_adduction_r	hip_rotation_r	knee_angle_r	ankle_angle_r	subtalar_angle_r	hip_flexion_l	hip_adduction_l	hip_rotation_l	knee_angle_l	ankle_angle_l	subtalar_angle_l	lumbar_extension	lumbar_bending	lumbar_rotation
      1.86000000	      4.43415858	     -5.42252809	     61.77709800	      0.72047883	      0.92714245	      0.55555139	     30.20824138	      0.27654048	      7.57277334	    -18.16870962	      4.51492438	     11.98752137	    -15.47541363	     -3.49618233	     33.97440338	    -17.30957361	     15.89652912	     -6.09440846	     -1.87613001	      3.88567192	    -11.74306489
      1.87000000	      4.67166495	     -5.44835469	     62.39727124	      0.72848375	      0.92650417	      0.54651310	     30.36501878	      0.75201303	      7.84586200	    -19.63687253	      3.53268724	     11.88985558	    -15.77717986	     -3.84494505	     34.08874095	    -18.12797048	     15.24110882	     -5.17766748	     -1.74130203	      4.11352935	    -11.75155497
      1.88000000	      4.94384202	     -5.46764998	     62.97833362	      0.73649583	      0.92601570	      0.53727706	     30.49751080	      1.25405295	      8.02729391	    -21.17562605	      2.59307365	     11.84175656	    -16.01313077	     -4.15715606	     34.06663928	    -19.11090426	     14.45695054	     -4.10510725	     -1.61769156	      4.38392650	    -11.73730239
      1.89000000	      5.25987971	     -5.48004682	     63.50672153	      0.74448403	      0.92568575	      0.52782192	     30.58786428	      1.77630380	      8.07832593	    -22.74073631	      1.79116756	     11.85494891	    -16.16826764	     -4.42778757	     33.85783102	    -20.28779067	     13.53343940	     -2.88642724	     -1.50845930	      4.71431954	    -11.68876205
      1.90000000	      5.59928615	     -5.45911501	     63.98569646	      0.75237334	      0.92554147	      0.51814526	     30.59704932	      2.26958828	      7.99078884	    -24.27603973	      1.20912172	     11.89897365	    -16.22624090	     -4.61795493	     33.44399083	    -21.69393349	     12.43181879	     -1.51178924	     -1.43463217	      5.07366557	    -11.60709582
      1.91000000	      5.94588916	     -5.40762973	     64.41623094	      0.76012325	      0.92555751	      0.50828857	     30.52910894	      2.71079358	      7.74937810	    -25.75801955	      0.88381793	     11.93630184	    -16.14430299	     -4.71436001	     32.79986529	    -23.36468119	     11.17873556	      0.01877394	     -1.38996093	      5.44867663	    -11.48767958
      1.92000000	      6.27051008	     -5.32553333	     64.81851851	      0.76766374	      0.92571864	      0.49833128	     30.37825763	      3.06537885	      7.38020585	    -27.14605136	      0.84267866	     11.93091740	    -15.85723468	     -4.69655492	     31.92950564	    -25.35528142	      9.77854856	      1.70225847	     -1.37064612	      5.80618365	    -11.34642850
      1.93000000	      6.54754447	     -5.22701563	     65.21819107	      0.77493890	      0.92598442	      0.48838446	     30.16851219	      3.31592205	      6.91030367	    -28.43177321	      1.08234575	     11.85999582	    -15.29056513	     -4.56700517	     30.84165023	    -27.70601169	      8.26460975	      3.47833040	     -1.36006860	      6.12045382	    -11.21093413
      1.94000000	      6.78463367	     -5.13030934	     65.62986151	      0.78195561	      0.92632597	      0.47854681	     29.90774426	      3.48608446	      6.35918978	    -29.59937386	      1.58579719	     11.71750081	    -14.40307656	     -4.36941495	     29.55190076	    -30.42808830	      6.67110393	      5.30092133	     -1.34936852	      6.39769005	    -11.07510015
      1.95000000	      6.97293214	     -5.07809324	     66.08934220	      0.78867719	      0.92665617	      0.46897231	     29.65240441	      3.59000163	      5.74472006	    -30.65328174	      2.28034269	     11.51487690	    -13.10554322	     -4.14868347	     28.09444802	    -33.54891419	      5.04021587	      6.95851550	     -1.30479022	      6.63612963	    -10.95742806
      1.96000000	      7.15837027	     -5.07539144	     66.60466793	      0.79512808	      0.92698739	      0.45972800	     29.37016649	      3.68875485	      5.11373943	    -31.55483549	      3.09015809	     11.27428127	    -11.42963843	     -3.98865836	     26.51298908	    -37.00660059	      3.39814168	      8.39449910	     -1.24520566	      6.87751828	    -10.86902313
      1.97000000	      7.36008139	     -5.14267211	     67.17950683	      0.80136210	      0.92726749	      0.45085468	     29.10024025	      3.80754125	      4.41249063	    -32.33902396	      3.96753658	     11.02222499	     -9.40894050	     -3.94930167	     24.88573932	    -40.69969274	      1.77749434	      9.40890980	     -1.15439313	      7.13878386	    -10.77219734
      1.98000000	      7.60928742	     -5.25949368	     67.81048544	      0.80742384	      0.92757186	      0.44235392	     28.78225953	      3.99188257	      3.72061231	    -32.95196484	      4.82810848	     10.75946629	     -7.13972563	     -4.07362485	     23.28979174	    -44.49629099	      0.22640896	     10.09138259	     -1.06424822	      7.43817090	    -10.68698163
      1.99000000	      7.95906531	     -5.40487159	     68.47978815	      0.81338795	      0.92794447	      0.43417685	     28.39072245	      4.28768648	      2.99767812	    -33.41428409	      5.63939877	     10.53479751	     -4.74752119	     -4.41112231	     21.78385973	    -48.25863258	     -1.13415027	     10.32298148	     -1.01022168	      7.81934066	    -10.55427754
      2.00000000	      8.27957723	     -5.58424344	     69.17380502	      0.81921739	      0.92835408	      0.42628509	     27.98459603	      4.58729702	      2.32123058	    -33.73055682	      6.42096034	     10.21665438	     -2.22863076	     -4.81071512	     20.45001140	    -51.87887590	     -2.21895570	     10.23076937	     -0.92021988	      8.15210485	    -10.43794105
      2.01000000	      8.68279242	     -5.75802700	     69.87631963	      0.82499165	      0.92892650	      0.41858463	     27.47530385	      4.98795723	      1.66008390	    -33.88789436	      7.10551643	      9.89262382	      0.26144230	     -5.35889073	     19.27949882	    -55.25474383	     -2.90594884	      9.60901010	     -0.87538266	      8.53907274	    -10.27292558
      2.02000000	      9.12543974	     -5.91302181	     70.56970766	      0.83068974	      0.92968755	      0.41098529	     26.86651362	      5.44723144	      1.03276556	    -33.89202173	      7.70324613	      9.55940655	      2.68250427	     -5.97520627	     18.27863856	    -58.31846335	     -3.16490271	      8.41423402	     -0.86013572	      8.94052993	    -10.07116564
      2.03000000	      9.58855198	     -6.03261257	     71.23913872	      0.83629486	      0.93067451	      0.40342517	     26.14538406	      5.94344405	      0.45669602	    -33.74081562	      8.21288965	      9.23366782	      4.99746482	     -6.61488633	     17.41548136	    -61.02995127	     -3.02776075	      6.69311057	     -0.88060206	      9.33672147	     -9.82439081
      2.04000000	     10.03885688	     -6.11109629	     71.86186906	      0.84177749	      0.93188608	      0.39585475	     25.32196443	      6.44870285	     -0.03697600	    -33.45106972	      8.65477391	      8.92123152	      7.18338785	     -7.21614575	     16.65218456	    -63.36195771	     -2.52803201	      4.54747750	     -0.92968344	      9.70135444	     -9.52333407
      2.05000000	     10.44310563	     -6.15502595	     72.44460297	      0.84706439	      0.93329364	      0.38823979	     24.41993045	      6.91212178	     -0.48449189	    -33.03698041	      9.02478322	      8.64276092	      9.24831673	     -7.72065399	     15.97584063	    -65.31467658	     -1.74720308	      2.22632678	     -0.98692237	     10.00932576	     -9.15834412
      2.06000000	     10.78154698	     -6.16642769	     72.99933552	      0.85209850	      0.93485788	      0.38058461	     23.45753266	      7.30980860	     -0.87938189	    -32.52338362	      9.35543883	      8.40331603	     11.20458415	     -8.09656880	     15.35720727	    -66.90016750	     -0.79326848	     -0.03842567	     -1.04575530	     10.24685285	     -8.80541843
      2.07000000	     11.04540964	     -6.13808766	     73.50585061	      0.85686504	      0.93656491	      0.37288373	     22.43789544	      7.62709446	     -1.22838859	    -31.92925884	      9.63916518	      8.20911146	     13.02821197	     -8.32671846	     14.75268996	    -68.11467081	      0.26913109	     -2.05542545	     -1.11970429	     10.40635051	     -8.39559589
      2.08000000	     11.22421550	     -6.08250877	     73.98552276	      0.86132852	      0.93836160	      0.36512529	     21.37430031	      7.85099664	     -1.53565716	    -31.25745296	      9.91362429	      8.06282810	     14.73346681	     -8.39446604	     14.16454401	    -68.96676808	      1.38283427	     -3.64533170	     -1.19006171	     10.48241325	     -7.98731492
      2.09000000	     11.31399777	     -5.99667978	     74.42339543	      0.86548419	      0.94022040	      0.35733161	     20.27830098	      7.97442408	     -1.80309421	    -30.53259395	     10.14900721	      7.95979059	     16.30956591	     -8.30653070	     13.54899698	    -69.46180990	      2.50161226	     -4.78593554	     -1.27188588	     10.47211960	     -7.55134199
